<svg width="541" height="132" viewBox="0 0 541 132" fill="none" xmlns="http://www.w3.org/2000/svg">
<mask id="mask0_1078_2845" style="mask-type:alpha" maskUnits="userSpaceOnUse" x="0" y="0" width="542" height="132">
<path d="M38.7864 25.6672C39.925 30.0731 37.47 34.6754 33.2653 35.8153C31.8841 36.1895 30.3758 36.1761 28.8739 35.663L15.2445 31.0085C15.1352 30.9564 15.0463 30.8855 14.9777 30.804C14.5673 30.3216 14.8519 29.445 15.5685 29.445H19.5407C25.241 29.445 29.8739 24.6355 29.9692 18.6647V18.4763H29.9717C29.9717 16.8446 29.6337 15.2972 29.0251 13.906C28.5969 12.9212 28.0327 12.0151 27.3579 11.2147C25.9462 9.53488 24.0529 8.31346 21.9042 7.79096C21.5242 7.69875 21.1367 7.62926 20.7428 7.57981C20.3247 7.52903 19.9003 7.50498 19.4683 7.50765C13.7197 7.54774 9.11221 12.539 9.11221 18.5846L9.02199 31.0766V35.254C9.02199 36.0077 8.18843 36.3071 7.72971 35.8754C7.65347 35.8033 7.58612 35.7111 7.5353 35.5948L0.363567 11.2026C-0.720325 7.50765 0.673613 3.46523 3.82109 1.46607C5.03205 0.696337 6.45649 0.25 7.9902 0.25H26.0974C29.8358 0.25 33.0455 2.90798 33.9337 6.64972L38.7864 25.6672Z" fill="black"/>
<path d="M19.5418 24.3371C22.3932 24.3371 24.7046 21.9076 24.7046 18.9089C24.7046 17.4108 24.1264 16.0531 23.1925 15.0709C22.2585 14.0873 20.9675 13.4807 19.5418 13.4807C18.1161 13.4807 16.8264 14.0887 15.8924 15.0709C14.9572 16.0531 14.3803 17.4108 14.3803 18.9089C14.3803 20.4069 14.9585 21.7659 15.8924 22.7482C16.8264 23.7304 18.1161 24.3371 19.5418 24.3371Z" fill="black"/>
<path d="M90.9376 1.98789C91.4472 1.98789 91.8894 2.17899 92.2629 2.56252C92.6378 2.95674 92.8246 3.42579 92.8246 3.97235V25.6197C92.8246 26.177 92.6378 26.642 92.2629 27.0135C91.8894 27.4077 91.4472 27.6042 90.9376 27.6042H90.8906C90.3811 27.6042 89.9389 27.4077 89.5653 27.0135C89.1904 26.642 89.0036 26.177 89.0036 25.6197V3.97235C89.0036 3.42579 89.1904 2.9554 89.5653 2.56252C89.9401 2.18032 90.3811 1.98789 90.8906 1.98789H90.9376Z" fill="black"/>
<path fill-rule="evenodd" clip-rule="evenodd" d="M49.9512 33.7528C50.3248 34.147 50.767 34.3435 51.2766 34.3435H51.3223C51.8319 34.3435 52.2728 34.147 52.6476 33.7528C53.0225 33.3599 53.2093 32.8949 53.2093 32.359V25.9633C54.3834 27.0564 56.1039 27.603 58.3708 27.603C60.8448 27.603 62.9605 26.6796 64.7178 24.8314C66.4752 22.9833 67.3532 20.7583 67.3532 18.1564C67.3532 15.5546 66.4752 13.3296 64.7178 11.4814C62.9605 9.63325 60.8448 8.70984 58.3708 8.70984C55.8968 8.70984 53.7862 9.62924 52.0402 11.4654C50.2842 13.2921 49.3998 15.5118 49.3896 18.1243V32.359C49.3896 32.8949 49.5764 33.3599 49.9512 33.7528ZM63.5323 18.1243C63.5323 19.6224 63.0291 20.9013 62.0202 21.9623C61.0112 23.022 59.8054 23.5525 58.3708 23.5525C56.9362 23.5525 55.7138 23.0234 54.7061 21.9623C53.7086 20.9013 53.2093 19.6331 53.2093 18.1243C53.2093 16.6156 53.7086 15.3314 54.7061 14.2703C55.715 13.2213 56.9362 12.6961 58.3708 12.6961C59.8054 12.6961 61.0227 13.22 62.0202 14.2703C63.0278 15.3314 63.5323 16.6263 63.5323 18.1243Z" fill="black"/>
<path d="M75.1428 22.4524C74.4249 21.6867 74.0665 20.7633 74.0665 19.6809V10.7114C74.0665 10.1648 73.8798 9.69576 73.5049 9.30154C73.1313 8.90732 72.6891 8.71087 72.1796 8.71087H72.1326C71.623 8.71087 71.1808 8.90865 70.8072 9.30154C70.4324 9.69442 70.2456 10.1648 70.2456 10.7114V19.6822C70.2456 21.8578 70.9839 23.722 72.4604 25.2748C73.9369 26.8276 75.7248 27.604 77.7934 27.604C79.8621 27.604 81.6347 26.8276 83.1113 25.2748C84.5878 23.722 85.3261 21.8578 85.3261 19.6822V10.7114C85.3261 10.1648 85.1393 9.69576 84.7644 9.30154C84.4112 8.90732 83.969 8.71087 83.4391 8.71087H83.4073C82.8876 8.71087 82.4416 8.90865 82.0668 9.30154C81.6919 9.69442 81.5051 10.1648 81.5051 10.7114V19.6809C81.5051 20.7633 81.1455 21.6867 80.4288 22.4524C79.7008 23.2075 78.8329 23.5843 77.7934 23.5843C76.754 23.5843 75.8709 23.2061 75.1428 22.4524Z" fill="black"/>
<path d="M100.237 13.2203C100.548 12.8929 100.933 12.7285 101.39 12.7285L101.389 12.7272H104.415C104.934 12.7272 105.38 12.5294 105.755 12.1365C106.13 11.765 106.317 11.3 106.317 10.7427V10.7093C106.317 10.1627 106.13 9.69369 105.755 9.29947C105.382 8.90525 104.934 8.7088 104.415 8.7088H101.545C100.049 8.7088 98.7652 9.2714 97.694 10.3979C96.633 11.5124 96.1031 12.814 96.1031 14.4323C96.1031 16.0506 96.5352 17.3015 97.3979 18.1875C98.0002 18.8102 98.9202 19.314 100.158 19.6962C101.749 20.1666 102.622 20.4405 102.778 20.5167C103.371 20.8227 103.667 21.2771 103.667 21.8784C103.667 22.3595 103.511 22.7644 103.2 23.0918C102.889 23.4192 102.504 23.5836 102.046 23.5836H97.8198C97.3103 23.5836 96.8693 23.78 96.4945 24.1742C96.1196 24.5671 95.9328 25.0375 95.9328 25.5841V25.6175C95.9328 26.1747 96.1196 26.6398 96.4945 27.0113C96.8681 27.4055 97.3103 27.602 97.8198 27.602H101.89C103.387 27.602 104.67 27.0447 105.741 25.9289C106.802 24.8037 107.332 23.474 107.332 21.8784C107.332 20.2828 106.9 19.0521 106.037 18.1888C105.435 17.5874 104.515 17.101 103.277 16.7295C101.75 16.3032 100.882 16.0293 100.674 15.909C100.07 15.5816 99.769 15.0898 99.769 14.4337C99.769 13.9633 99.9253 13.5597 100.237 13.2203Z" fill="black"/>
<path fill-rule="evenodd" clip-rule="evenodd" d="M125.851 13.1848C124.56 10.9237 122.452 9.3468 120.069 8.86839C119.575 8.76282 119.091 8.71605 118.499 8.71605C113.57 8.71605 109.56 12.9522 109.56 18.1559C109.56 23.3596 113.57 27.5958 118.499 27.5958C119.47 27.5958 122.828 27.4047 125.274 24.9272C125.655 24.5436 125.871 24.0051 125.871 23.4478C125.871 22.8906 125.672 22.4108 125.311 22.0474C124.946 21.6465 124.465 21.4286 123.946 21.4233H123.929C123.416 21.4233 122.931 21.6304 122.557 22.0073C121.549 23.0269 119.753 23.5601 118.499 23.5601C116.156 23.5601 114.121 21.8603 113.552 19.4255L113.47 19.0713H125.169C126.157 19.0713 126.608 18.1372 126.722 17.8513L126.724 17.8441C126.857 17.4949 126.995 17.1316 126.995 16.8396C127.067 15.5795 126.376 14.1496 125.851 13.1834V13.1848ZM114.444 15.7318C114.227 15.7318 114.097 15.4793 114.214 15.2882C115.176 13.7273 116.739 12.8333 118.498 12.8333C120.256 12.8333 121.709 13.7353 122.499 15.3109C122.594 15.502 122.462 15.7318 122.256 15.7318H114.444Z" fill="black"/>
<path d="M13.9545 79.6897H33.7314C34.4224 79.6897 35.0166 79.9368 35.5142 80.431C36.0117 80.9542 36.2605 81.5938 36.2605 82.3496V82.4368C36.2605 83.1635 36.0117 83.7885 35.5142 84.3117C35.0166 84.835 34.4224 85.0966 33.7314 85.0966H13.9545V111.172C13.9545 111.898 13.7057 112.523 13.2082 113.047C12.7106 113.57 12.1164 113.831 11.4254 113.831H11.301C10.61 113.831 10.0157 113.57 9.51815 113.047C9.02062 112.523 8.77185 111.898 8.77185 111.172V64.2541C8.77185 60.5623 10.0019 57.4228 12.4619 54.8357C14.9219 52.2485 17.9071 50.955 21.4174 50.955H34.146C34.837 50.955 35.4313 51.202 35.9288 51.6962C36.4263 52.2195 36.6751 52.859 36.6751 53.6148V53.702C36.6751 54.4578 36.4263 55.0973 35.9288 55.6205C35.4313 56.1147 34.837 56.3618 34.146 56.3618H21.4174C19.372 56.3618 17.6169 57.1321 16.1519 58.6728C14.6869 60.2135 13.9545 62.0739 13.9545 64.2541V79.6897Z" fill="black"/>
<path d="M46.4184 50.955C47.1094 50.955 47.7037 51.202 48.2012 51.6962C48.6988 52.2195 48.9475 52.859 48.9475 53.6148V111.172C48.9475 111.898 48.6988 112.523 48.2012 113.047C47.7037 113.57 47.1094 113.831 46.4184 113.831H46.294C45.603 113.831 45.0087 113.57 44.5112 113.047C44.0137 112.523 43.7649 111.898 43.7649 111.172V53.6148C43.7649 52.859 44.0137 52.2195 44.5112 51.6962C45.0087 51.202 45.603 50.955 46.294 50.955H46.4184Z" fill="black"/>
<path d="M63.1272 68.8324C63.8182 68.8324 64.4125 69.0941 64.91 69.6173C65.4075 70.1405 65.6563 70.7801 65.6563 71.5359V111.172C65.6563 111.898 65.4075 112.523 64.91 113.047C64.4125 113.57 63.8182 113.831 63.1272 113.831H63.0443C62.3256 113.831 61.7175 113.57 61.22 113.047C60.7224 112.523 60.4737 111.898 60.4737 111.172V71.5359C60.4737 70.7801 60.7224 70.1405 61.22 69.6173C61.7175 69.0941 62.3256 68.8324 63.0443 68.8324H63.1272ZM63.0857 57.9315C62.1459 57.9315 61.3582 57.5972 60.7224 56.9287C60.0867 56.2601 59.7688 55.4316 59.7688 54.4432C59.7688 53.484 60.0867 52.67 60.7224 52.0014C61.3582 51.3329 62.1459 50.9986 63.0857 50.9986C63.9979 50.9986 64.7718 51.3329 65.4075 52.0014C66.0709 52.6991 66.4026 53.513 66.4026 54.4432C66.4026 55.4025 66.0709 56.231 65.4075 56.9287C64.7718 57.5972 63.9979 57.9315 63.0857 57.9315Z" fill="black"/>
<path d="M81.2042 118.584C84.4381 123.729 89.2614 126.302 95.674 126.302C99.7925 126.302 103.496 124.645 106.786 121.331C110.185 117.901 111.885 113.875 111.885 109.253V106.244C106.468 111.302 101.064 113.831 95.674 113.831C89.7589 113.831 84.7145 111.637 80.5408 107.247C76.367 102.858 74.2802 97.5527 74.2802 91.3319C74.2802 85.1111 76.367 79.806 80.5408 75.4166C84.7145 71.0272 89.7589 68.8324 95.674 68.8324C101.561 68.8324 106.592 71.0126 110.766 75.373C114.94 79.7624 117.04 85.053 117.068 91.2447V109.253C117.068 115.299 114.815 120.59 110.31 125.125C105.97 129.543 101.092 131.752 95.674 131.752C87.2436 131.752 80.9554 128.351 76.8093 121.549C76.367 120.822 76.2703 120.038 76.5191 119.195C76.7955 118.381 77.3206 117.828 78.0946 117.538L78.219 117.494C79.4628 117.058 80.4579 117.421 81.2042 118.584ZM111.885 91.0703C111.83 86.3902 110.213 82.4368 107.034 79.2101C103.883 75.9253 100.097 74.2829 95.674 74.2829C91.1963 74.2829 87.368 75.9544 84.1893 79.2973C81.0383 82.6403 79.4628 86.6518 79.4628 91.3319C79.4628 96.0411 81.0383 100.067 84.1893 103.41C87.368 106.724 91.1963 108.381 95.674 108.381C100.152 108.381 103.966 106.724 107.117 103.41C110.296 100.067 111.885 96.0411 111.885 91.3319V91.0703Z" fill="black"/>
<path d="M127.014 50.955C127.705 50.955 128.299 51.202 128.796 51.6962C129.294 52.2195 129.543 52.859 129.543 53.6148V74.0213C133.938 70.562 138.07 68.8324 141.94 68.8324C146.777 68.8324 150.909 70.6347 154.336 74.2393C157.764 77.8439 159.478 82.2042 159.478 87.3204V111.172C159.478 111.898 159.229 112.523 158.731 113.047C158.234 113.57 157.639 113.831 156.948 113.831H156.865C156.147 113.831 155.539 113.57 155.041 113.047C154.544 112.523 154.295 111.898 154.295 111.172V87.3204C154.295 83.7449 153.093 80.6781 150.688 78.12C148.255 75.5619 145.339 74.2829 141.94 74.2829C138.512 74.2829 135.582 75.5619 133.15 78.12C130.745 80.6781 129.543 83.7449 129.543 87.3204V111.172C129.543 111.898 129.294 112.523 128.796 113.047C128.299 113.57 127.705 113.831 127.014 113.831H126.889C126.198 113.831 125.604 113.57 125.106 113.047C124.609 112.523 124.36 111.898 124.36 111.172V53.6148C124.36 52.859 124.609 52.2195 125.106 51.6962C125.604 51.202 126.198 50.955 126.889 50.955H127.014Z" fill="black"/>
<path d="M170.465 50.955C171.156 50.955 171.75 51.202 172.247 51.6962C172.745 52.2195 172.994 52.859 172.994 53.6148V68.8324H181.701C182.392 68.8324 182.986 69.0941 183.483 69.6173C183.981 70.1405 184.23 70.7801 184.23 71.5359V71.6231C184.23 72.3498 183.981 72.9748 183.483 73.498C182.986 74.0213 182.392 74.2829 181.701 74.2829H172.994V102.756C172.994 104.297 173.519 105.619 174.569 106.724C175.62 107.829 176.891 108.381 178.384 108.381H181.701C182.392 108.381 182.986 108.643 183.483 109.166C183.981 109.689 184.23 110.329 184.23 111.084V111.172C184.23 111.898 183.981 112.523 183.483 113.047C182.986 113.57 182.392 113.831 181.701 113.831H178.384C175.454 113.831 172.952 112.756 170.879 110.605C168.834 108.425 167.811 105.808 167.811 102.756V53.6148C167.811 52.859 168.06 52.2195 168.557 51.6962C169.055 51.202 169.649 50.955 170.34 50.955H170.465Z" fill="black"/>
<path d="M209.521 83.9193C213.114 83.9193 216.196 82.5821 218.767 79.9078C221.337 77.2043 222.623 73.9631 222.623 70.1842C222.623 66.3761 221.337 63.1204 218.767 60.4169C216.196 57.7426 213.114 56.4054 209.521 56.4054H204.753C202.016 56.4054 199.819 57.2629 198.161 58.978C196.862 60.2861 196.06 61.8559 195.756 63.6872C195.645 64.1814 195.59 64.8645 195.59 65.7366V83.9193H209.521ZM222.623 103.105C222.623 99.3259 221.337 96.0847 218.767 93.3813C216.445 90.9104 213.653 89.5732 210.392 89.3697H195.59V111.172C195.59 111.927 195.355 112.552 194.885 113.047C194.388 113.57 193.78 113.831 193.061 113.831H192.978C192.287 113.831 191.693 113.57 191.195 113.047C190.698 112.523 190.449 111.898 190.449 111.172V65.3441C190.449 61.3617 191.776 57.9751 194.429 55.1845C197.11 52.3648 200.344 50.955 204.131 50.955H209.521C214.579 50.955 218.877 52.8299 222.415 56.5798C225.981 60.3297 227.764 64.8645 227.764 70.1842C227.764 75.4747 225.981 79.995 222.415 83.7449C221.752 84.4135 220.66 85.3727 219.14 86.6227C220.688 87.9018 221.793 88.8756 222.457 89.5442C225.995 93.265 227.764 97.7852 227.764 103.105V111.172C227.764 111.898 227.515 112.523 227.017 113.047C226.52 113.57 225.926 113.831 225.235 113.831H225.152C224.461 113.831 223.866 113.57 223.369 113.047C222.871 112.523 222.623 111.898 222.623 111.172V103.105Z" fill="black"/>
<path d="M302.559 68.8324C304.771 68.8324 306.927 69.1958 309.027 69.9225C310.216 70.3004 310.81 71.1434 310.81 72.4515V72.6696C310.81 73.5707 310.465 74.2829 309.773 74.8061C309.082 75.3584 308.322 75.5038 307.493 75.2422C305.918 74.6608 304.273 74.3701 302.559 74.3701C298.082 74.3701 294.253 76.0416 291.075 79.3845C287.924 82.7275 286.348 86.7535 286.348 91.4627C286.348 96.1428 287.924 100.154 291.075 103.497C294.253 106.84 298.082 108.512 302.559 108.512C304.273 108.512 305.918 108.25 307.493 107.727C308.322 107.436 309.082 107.552 309.773 108.076C310.465 108.599 310.81 109.326 310.81 110.256C310.81 111.535 310.216 112.378 309.027 112.785C306.927 113.483 304.771 113.831 302.559 113.831C296.644 113.831 291.6 111.637 287.426 107.247C283.252 102.858 281.165 97.5527 281.165 91.3319C281.165 85.1111 283.252 79.806 287.426 75.4166C291.6 71.0272 296.644 68.8324 302.559 68.8324Z" fill="black"/>
<path d="M338.05 74.3701C333.572 74.3701 329.744 76.0416 326.565 79.3845C323.414 82.7275 321.839 86.7535 321.839 91.4627C321.839 96.1428 323.414 100.154 326.565 103.497C329.744 106.84 333.572 108.512 338.05 108.512C342.555 108.512 346.37 106.84 349.493 103.497C352.672 100.154 354.261 96.1428 354.261 91.4627C354.261 86.7535 352.672 82.7275 349.493 79.3845C346.37 76.0416 342.555 74.3701 338.05 74.3701ZM338.05 68.8324C343.965 68.8324 349.009 71.0272 353.183 75.4166C357.357 79.806 359.444 85.1111 359.444 91.3319C359.444 97.5527 357.357 102.858 353.183 107.247C349.009 111.637 343.965 113.831 338.05 113.831C332.135 113.831 327.09 111.637 322.917 107.247C318.743 102.858 316.656 97.5527 316.656 91.3319C316.656 85.1111 318.743 79.806 322.917 75.4166C327.09 71.0272 332.135 68.8324 338.05 68.8324Z" fill="black"/>
<path d="M384.652 68.8324C385.371 68.8324 385.979 69.0941 386.476 69.6173C386.946 70.1405 387.181 70.7801 387.181 71.5359V71.6231C387.181 72.3789 386.946 73.0039 386.476 73.498C385.979 74.0213 385.371 74.2829 384.652 74.2829H382.289C379.359 74.2829 376.857 75.373 374.784 77.5532C372.739 79.7333 371.702 82.3641 371.675 85.4454V111.172C371.675 111.898 371.426 112.523 370.928 113.047C370.431 113.57 369.837 113.831 369.146 113.831H369.021C368.33 113.831 367.736 113.57 367.238 113.047C366.741 112.523 366.492 111.898 366.492 111.172V85.4454C366.547 80.8234 368.081 76.8991 371.094 73.6724C374.162 70.4458 377.894 68.8324 382.289 68.8324H384.652Z" fill="black"/>
<path d="M410.933 74.3701C406.456 74.3701 402.627 76.0416 399.449 79.3845C396.298 82.7275 394.722 86.7535 394.722 91.4627C394.722 96.1428 396.298 100.154 399.449 103.497C402.627 106.84 406.456 108.512 410.933 108.512C415.439 108.512 419.253 106.84 422.377 103.497C425.555 100.154 427.145 96.1428 427.145 91.4627C427.145 86.7535 425.555 82.7275 422.377 79.3845C419.253 76.0416 415.439 74.3701 410.933 74.3701ZM429.798 50.955C430.489 50.955 431.083 51.202 431.581 51.6962C432.078 52.2195 432.327 52.859 432.327 53.6148V91.4627C432.3 97.6254 430.199 102.901 426.025 107.291C421.851 111.651 416.821 113.831 410.933 113.831C405.018 113.831 399.974 111.637 395.8 107.247C391.626 102.858 389.539 97.5527 389.539 91.3319C389.539 85.1111 391.626 79.806 395.8 75.4166C399.974 71.0272 405.018 68.8324 410.933 68.8324C416.323 68.8324 421.727 71.3615 427.145 76.4195V53.6148C427.145 52.859 427.393 52.2195 427.891 51.6962C428.388 51.202 428.983 50.955 429.674 50.955H429.798Z" fill="black"/>
<path d="M505.791 68.8324C506.51 68.8324 507.118 69.0941 507.615 69.6173C508.085 70.1405 508.32 70.7801 508.32 71.5359V71.6231C508.32 72.3789 508.085 73.0039 507.615 73.498C507.118 74.0213 506.51 74.2829 505.791 74.2829H503.428C500.498 74.2829 497.996 75.373 495.923 77.5532C493.878 79.7333 492.841 82.3641 492.814 85.4454V111.172C492.814 111.898 492.565 112.523 492.068 113.047C491.57 113.57 490.976 113.831 490.285 113.831H490.16C489.469 113.831 488.875 113.57 488.378 113.047C487.88 112.523 487.631 111.898 487.631 111.172V85.4454C487.686 80.8234 489.221 76.8991 492.233 73.6724C495.301 70.4458 499.033 68.8324 503.428 68.8324H505.791Z" fill="black"/>
<path d="M466.348 76.0891C462.266 74.155 458.122 74.0254 453.919 75.7003C449.74 77.3872 446.731 80.3775 444.892 84.6712C444.563 85.4398 444.138 86.7849 443.618 88.7066L475.701 88.6501C474.053 82.449 470.935 78.262 466.348 76.0891ZM481.098 91.4457C481.114 92.1866 480.872 92.8214 480.373 93.35C479.885 93.8522 479.289 94.1117 478.584 94.1286C474.341 94.1269 468.761 94.1299 461.846 94.1377C453.261 94.1514 447.168 94.1503 443.567 94.1342C445.052 100.576 448.201 104.938 453.015 107.218C456.215 108.734 459.539 109.114 462.986 108.355C466.299 107.629 469.117 105.968 471.442 103.371C472.297 102.437 473.292 102.238 474.426 102.775C475.232 103.157 475.727 103.806 475.911 104.722C476.069 105.626 475.84 106.41 475.222 107.074C472.149 110.496 468.41 112.679 464.005 113.621C459.477 114.568 455.121 114.05 450.937 112.068C445.544 109.513 441.802 105.333 439.711 99.5285C437.619 93.7236 437.788 87.9852 440.218 82.3133C442.647 76.6414 446.622 72.7058 452.142 70.5065C457.661 68.3072 463.118 68.4851 468.511 71.0401C472.392 72.8787 475.469 75.6753 477.741 79.4299C479.96 83.0956 481.079 87.1009 481.098 91.4457Z" fill="black"/>
<path d="M261.126 76.089C257.044 74.1548 252.9 74.0252 248.697 75.7002C244.518 77.3871 241.509 80.3774 239.67 84.671C239.341 85.4396 238.916 86.7848 238.396 88.7065L270.479 88.65C268.831 82.4489 265.713 78.2619 261.126 76.089ZM275.876 91.4455C275.892 92.1865 275.65 92.8212 275.151 93.3499C274.663 93.852 274.067 94.1116 273.362 94.1285C269.119 94.1268 263.539 94.1298 256.624 94.1376C248.039 94.1513 241.946 94.1501 238.345 94.1341C239.83 100.576 242.979 104.938 247.793 107.218C250.993 108.734 254.317 109.113 257.764 108.355C261.077 107.629 263.895 105.967 266.22 103.371C267.075 102.436 268.07 102.238 269.204 102.775C270.01 103.157 270.505 103.806 270.689 104.722C270.847 105.626 270.618 106.41 270 107.074C266.927 110.496 263.189 112.678 258.783 113.62C254.255 114.568 249.899 114.05 245.715 112.068C240.322 109.513 236.58 105.333 234.489 99.5284C232.397 93.7234 232.567 87.985 234.996 82.3132C237.425 76.6413 241.4 72.7057 246.92 70.5064C252.439 68.3071 257.896 68.485 263.289 71.0399C267.17 72.8786 270.247 75.6752 272.519 79.4298C274.738 83.0955 275.857 87.1008 275.876 91.4455Z" fill="black"/>
<path d="M520.272 44.6939C520.272 45.053 520.148 45.3618 519.9 45.6204C519.659 45.8717 519.366 45.9974 519.022 45.9974H516.501V58.8923C516.501 59.2514 516.381 59.5566 516.14 59.8079C515.892 60.0665 515.596 60.1958 515.252 60.1958H515.231C514.887 60.1958 514.591 60.0665 514.343 59.8079C514.102 59.5566 513.981 59.2514 513.981 58.8923V45.9974H511.461C511.124 45.9974 510.831 45.8717 510.583 45.6204C510.335 45.3618 510.211 45.053 510.211 44.6939V44.6724C510.211 44.3133 510.335 44.0045 510.583 43.7459C510.831 43.4946 511.124 43.3689 511.461 43.3689H519.022C519.366 43.3689 519.659 43.4946 519.9 43.7459C520.148 44.0045 520.272 44.3133 520.272 44.6724V44.6939Z" fill="black"/>
<path d="M523.4 58.8923C523.4 59.2585 523.276 59.5638 523.028 59.8079C522.78 60.0665 522.487 60.1958 522.15 60.1958H522.119C521.781 60.1958 521.489 60.0665 521.241 59.8079C520.993 59.5638 520.869 59.2585 520.869 58.8923V48.5505C520.869 47.1214 521.354 45.9005 522.325 44.8878C523.296 43.8752 524.467 43.3689 525.837 43.3689C527.476 43.3689 528.712 43.9363 529.545 45.071C530.372 43.9363 531.604 43.3689 533.243 43.3689C534.613 43.3689 535.784 43.8752 536.755 44.8878C537.726 45.9005 538.211 47.1214 538.211 48.5505V58.8923C538.211 59.2514 538.091 59.5566 537.85 59.8079C537.602 60.0665 537.306 60.1958 536.961 60.1958H536.941C536.59 60.1958 536.297 60.0665 536.063 59.8079C535.815 59.5638 535.691 59.2585 535.691 58.8923V48.5505C535.691 47.8395 535.453 47.2363 534.978 46.7407C534.503 46.2452 533.925 45.9974 533.243 45.9974C532.568 45.9974 531.993 46.2452 531.518 46.7407C531.043 47.2363 530.805 47.8395 530.805 48.5505V58.8923C530.805 59.2585 530.681 59.5638 530.434 59.8079C530.199 60.0665 529.907 60.1958 529.556 60.1958H529.535C529.191 60.1958 528.895 60.0665 528.647 59.8079C528.399 59.5638 528.275 59.2585 528.275 58.8923V48.5505C528.275 47.8395 528.037 47.2363 527.562 46.7407C527.087 46.2452 526.512 45.9974 525.837 45.9974C525.162 45.9974 524.587 46.2452 524.112 46.7407C523.637 47.2363 523.4 47.8395 523.4 48.5505V58.8923Z" fill="black"/>
</mask>
<g mask="url(#mask0_1078_2845)">
<path d="M0 -0.300049H541V132.7H0V-0.300049Z" fill="url(#paint0_linear_1078_2845)"/>
</g>
<defs>
<linearGradient id="paint0_linear_1078_2845" x1="1.05391e-05" y1="-0.397344" x2="548.934" y2="74.3011" gradientUnits="userSpaceOnUse">
<stop stop-color="#FF621D"/>
<stop offset="1" stop-color="#F20BDF"/>
</linearGradient>
</defs>
</svg>
